<mxfile host="app.diagrams.net" modified="2023-06-14T05:05:00.051Z" agent="Mozilla/5.0 (Windows NT 10.0; Win64; x64) AppleWebKit/537.36 (KHTML, like Gecko) Chrome/114.0.0.0 Safari/537.36" etag="1z1vJ8jcp50BNOEd-NhM" version="21.3.7" type="device">
  <diagram name="Page-1" id="lQgH73GFsdz1Ia2HMj7Y">
    <mxGraphModel dx="2261" dy="756" grid="1" gridSize="10" guides="1" tooltips="1" connect="1" arrows="1" fold="1" page="1" pageScale="1" pageWidth="827" pageHeight="1169" math="0" shadow="0">
      <root>
        <mxCell id="0" />
        <mxCell id="1" parent="0" />
        <mxCell id="k8hzf8zhftYtITJq1yaA-1" value="로그인" style="rounded=1;whiteSpace=wrap;html=1;" parent="1" vertex="1">
          <mxGeometry x="200" y="90" width="120" height="60" as="geometry" />
        </mxCell>
        <mxCell id="k8hzf8zhftYtITJq1yaA-2" value="회원가입" style="rounded=1;whiteSpace=wrap;html=1;" parent="1" vertex="1">
          <mxGeometry x="180" y="30" width="120" height="60" as="geometry" />
        </mxCell>
        <mxCell id="k8hzf8zhftYtITJq1yaA-3" value="계정찾기" style="rounded=1;whiteSpace=wrap;html=1;" parent="1" vertex="1">
          <mxGeometry x="330" y="10" width="120" height="60" as="geometry" />
        </mxCell>
        <mxCell id="k8hzf8zhftYtITJq1yaA-4" value="비밀번호찾기" style="rounded=1;whiteSpace=wrap;html=1;" parent="1" vertex="1">
          <mxGeometry x="330" y="80" width="120" height="60" as="geometry" />
        </mxCell>
        <mxCell id="k8hzf8zhftYtITJq1yaA-5" value="글쓰기" style="rounded=1;whiteSpace=wrap;html=1;" parent="1" vertex="1">
          <mxGeometry x="15" y="90" width="120" height="60" as="geometry" />
        </mxCell>
        <mxCell id="k8hzf8zhftYtITJq1yaA-6" value="코멘트달기" style="rounded=1;whiteSpace=wrap;html=1;" parent="1" vertex="1">
          <mxGeometry x="15" y="40" width="120" height="60" as="geometry" />
        </mxCell>
        <mxCell id="k8hzf8zhftYtITJq1yaA-7" value="환경설정" style="rounded=1;whiteSpace=wrap;html=1;" parent="1" vertex="1">
          <mxGeometry x="355" y="10" width="120" height="60" as="geometry" />
        </mxCell>
        <mxCell id="k8hzf8zhftYtITJq1yaA-8" value="마이페이지" style="rounded=1;whiteSpace=wrap;html=1;" parent="1" vertex="1">
          <mxGeometry x="215" y="10" width="120" height="60" as="geometry" />
        </mxCell>
        <mxCell id="k8hzf8zhftYtITJq1yaA-9" value="좋아요" style="rounded=1;whiteSpace=wrap;html=1;" parent="1" vertex="1">
          <mxGeometry x="75" y="10" width="120" height="60" as="geometry" />
        </mxCell>
        <mxCell id="k8hzf8zhftYtITJq1yaA-10" value="전체지도" style="rounded=1;whiteSpace=wrap;html=1;" parent="1" vertex="1">
          <mxGeometry x="535" width="120" height="60" as="geometry" />
        </mxCell>
        <mxCell id="k8hzf8zhftYtITJq1yaA-11" value="세부지도" style="rounded=1;whiteSpace=wrap;html=1;" parent="1" vertex="1">
          <mxGeometry x="595" y="70" width="120" height="60" as="geometry" />
        </mxCell>
        <mxCell id="k8hzf8zhftYtITJq1yaA-12" value="API 지도" style="rounded=1;whiteSpace=wrap;html=1;" parent="1" vertex="1">
          <mxGeometry x="625" y="140" width="120" height="60" as="geometry" />
        </mxCell>
        <mxCell id="k8hzf8zhftYtITJq1yaA-16" value="email" style="ellipse;whiteSpace=wrap;html=1;align=center;fontStyle=4;" parent="1" vertex="1">
          <mxGeometry x="-7.5" y="470" width="100" height="40" as="geometry" />
        </mxCell>
        <mxCell id="k8hzf8zhftYtITJq1yaA-17" value="계정" style="rounded=1;arcSize=10;whiteSpace=wrap;html=1;align=center;" parent="1" vertex="1">
          <mxGeometry x="157.5" y="470" width="100" height="40" as="geometry" />
        </mxCell>
        <mxCell id="k8hzf8zhftYtITJq1yaA-18" value="이름" style="ellipse;whiteSpace=wrap;html=1;align=center;" parent="1" vertex="1">
          <mxGeometry x="75" y="520" width="100" height="40" as="geometry" />
        </mxCell>
        <mxCell id="k8hzf8zhftYtITJq1yaA-19" value="전화번호" style="ellipse;whiteSpace=wrap;html=1;align=center;" parent="1" vertex="1">
          <mxGeometry x="310" y="500" width="100" height="40" as="geometry" />
        </mxCell>
        <mxCell id="k8hzf8zhftYtITJq1yaA-20" value="주소" style="ellipse;whiteSpace=wrap;html=1;align=center;" parent="1" vertex="1">
          <mxGeometry x="210" y="530" width="100" height="40" as="geometry" />
        </mxCell>
        <mxCell id="k8hzf8zhftYtITJq1yaA-22" value="Favorite" style="ellipse;whiteSpace=wrap;html=1;align=center;" parent="1" vertex="1">
          <mxGeometry x="335" y="450" width="100" height="40" as="geometry" />
        </mxCell>
        <mxCell id="k8hzf8zhftYtITJq1yaA-23" value="마커" style="rounded=1;arcSize=10;whiteSpace=wrap;html=1;align=center;" parent="1" vertex="1">
          <mxGeometry x="130" y="1020" width="100" height="40" as="geometry" />
        </mxCell>
        <mxCell id="k8hzf8zhftYtITJq1yaA-24" value="세부지도" style="rounded=1;arcSize=10;whiteSpace=wrap;html=1;align=center;" parent="1" vertex="1">
          <mxGeometry x="950" y="530" width="90" height="35" as="geometry" />
        </mxCell>
        <mxCell id="k8hzf8zhftYtITJq1yaA-25" value="전국지도 idx" style="ellipse;whiteSpace=wrap;html=1;align=center;fontStyle=4;" parent="1" vertex="1">
          <mxGeometry x="525" y="480" width="100" height="40" as="geometry" />
        </mxCell>
        <mxCell id="k8hzf8zhftYtITJq1yaA-29" value="사진 URI" style="ellipse;whiteSpace=wrap;html=1;align=center;" parent="1" vertex="1">
          <mxGeometry x="470" y="740" width="100" height="40" as="geometry" />
        </mxCell>
        <mxCell id="k8hzf8zhftYtITJq1yaA-30" value="마커API 경도" style="ellipse;whiteSpace=wrap;html=1;align=center;" parent="1" vertex="1">
          <mxGeometry x="70" y="1125" width="100" height="40" as="geometry" />
        </mxCell>
        <mxCell id="k8hzf8zhftYtITJq1yaA-31" value="마커API 위도" style="ellipse;whiteSpace=wrap;html=1;align=center;" parent="1" vertex="1">
          <mxGeometry x="-27.5" y="1085" width="100" height="40" as="geometry" />
        </mxCell>
        <mxCell id="k8hzf8zhftYtITJq1yaA-32" value="마커idx" style="ellipse;whiteSpace=wrap;html=1;align=center;fontStyle=4;" parent="1" vertex="1">
          <mxGeometry x="-27.5" y="1040" width="100" height="40" as="geometry" />
        </mxCell>
        <mxCell id="k8hzf8zhftYtITJq1yaA-33" value="사진" style="rounded=1;arcSize=10;whiteSpace=wrap;html=1;align=center;" parent="1" vertex="1">
          <mxGeometry x="455" y="650" width="100" height="40" as="geometry" />
        </mxCell>
        <mxCell id="k8hzf8zhftYtITJq1yaA-35" value="사진idx" style="ellipse;whiteSpace=wrap;html=1;align=center;fontStyle=4;" parent="1" vertex="1">
          <mxGeometry x="365" y="720" width="100" height="40" as="geometry" />
        </mxCell>
        <mxCell id="k8hzf8zhftYtITJq1yaA-38" value="게시글idx" style="ellipse;whiteSpace=wrap;html=1;align=center;fontStyle=4;" parent="1" vertex="1">
          <mxGeometry x="-7.5" y="820" width="100" height="40" as="geometry" />
        </mxCell>
        <mxCell id="k8hzf8zhftYtITJq1yaA-39" value="게시글Idx" style="ellipse;whiteSpace=wrap;html=1;align=center;" parent="1" vertex="1">
          <mxGeometry x="572.5" y="700" width="100" height="40" as="geometry" />
        </mxCell>
        <mxCell id="k8hzf8zhftYtITJq1yaA-40" value="코멘트" style="rounded=1;arcSize=10;whiteSpace=wrap;html=1;align=center;" parent="1" vertex="1">
          <mxGeometry x="1040" y="140" width="100" height="40" as="geometry" />
        </mxCell>
        <mxCell id="k8hzf8zhftYtITJq1yaA-41" value="코멘트idx" style="ellipse;whiteSpace=wrap;html=1;align=center;fontStyle=4;" parent="1" vertex="1">
          <mxGeometry x="920" y="180" width="100" height="40" as="geometry" />
        </mxCell>
        <mxCell id="k8hzf8zhftYtITJq1yaA-42" value="게시글idx" style="ellipse;whiteSpace=wrap;html=1;align=center;" parent="1" vertex="1">
          <mxGeometry x="1030" y="200" width="100" height="40" as="geometry" />
        </mxCell>
        <mxCell id="k8hzf8zhftYtITJq1yaA-44" value="제목" style="ellipse;whiteSpace=wrap;html=1;align=center;" parent="1" vertex="1">
          <mxGeometry x="80" y="870" width="100" height="40" as="geometry" />
        </mxCell>
        <mxCell id="k8hzf8zhftYtITJq1yaA-45" value="내용" style="ellipse;whiteSpace=wrap;html=1;align=center;" parent="1" vertex="1">
          <mxGeometry x="210" y="870" width="100" height="40" as="geometry" />
        </mxCell>
        <mxCell id="k8hzf8zhftYtITJq1yaA-47" value="마커이름" style="ellipse;whiteSpace=wrap;html=1;align=center;" parent="1" vertex="1">
          <mxGeometry x="170" y="1125" width="100" height="40" as="geometry" />
        </mxCell>
        <mxCell id="k8hzf8zhftYtITJq1yaA-48" value="마커종류type" style="ellipse;whiteSpace=wrap;html=1;align=center;" parent="1" vertex="1">
          <mxGeometry x="242.5" y="1080" width="100" height="40" as="geometry" />
        </mxCell>
        <mxCell id="k8hzf8zhftYtITJq1yaA-50" value="마커종류" style="rounded=1;arcSize=10;whiteSpace=wrap;html=1;align=center;" parent="1" vertex="1">
          <mxGeometry x="572.5" y="1005" width="100" height="40" as="geometry" />
        </mxCell>
        <mxCell id="k8hzf8zhftYtITJq1yaA-51" value="마커종류type" style="ellipse;whiteSpace=wrap;html=1;align=center;fontStyle=4;" parent="1" vertex="1">
          <mxGeometry x="490" y="1065" width="100" height="40" as="geometry" />
        </mxCell>
        <mxCell id="k8hzf8zhftYtITJq1yaA-52" value="마커종류이름" style="ellipse;whiteSpace=wrap;html=1;align=center;" parent="1" vertex="1">
          <mxGeometry x="605" y="1075" width="100" height="40" as="geometry" />
        </mxCell>
        <mxCell id="k8hzf8zhftYtITJq1yaA-57" value="" style="fontSize=12;html=1;endArrow=ERzeroToMany;endFill=1;rounded=0;entryX=0.5;entryY=0;entryDx=0;entryDy=0;" parent="1" source="k8hzf8zhftYtITJq1yaA-17" target="inPe30HMubqTb9UfR07S-1" edge="1">
          <mxGeometry width="100" height="100" relative="1" as="geometry">
            <mxPoint x="225" y="730" as="sourcePoint" />
            <mxPoint x="325" y="630" as="targetPoint" />
          </mxGeometry>
        </mxCell>
        <mxCell id="k8hzf8zhftYtITJq1yaA-60" value="" style="fontSize=12;html=1;endArrow=ERoneToMany;rounded=0;entryX=0.5;entryY=1;entryDx=0;entryDy=0;exitX=0.5;exitY=0;exitDx=0;exitDy=0;" parent="1" source="k8hzf8zhftYtITJq1yaA-23" target="inPe30HMubqTb9UfR07S-1" edge="1">
          <mxGeometry width="100" height="100" relative="1" as="geometry">
            <mxPoint x="280" y="940" as="sourcePoint" />
            <mxPoint x="380" y="890" as="targetPoint" />
          </mxGeometry>
        </mxCell>
        <mxCell id="k8hzf8zhftYtITJq1yaA-64" value="" style="edgeStyle=entityRelationEdgeStyle;fontSize=12;html=1;endArrow=ERoneToMany;rounded=0;exitX=0;exitY=0.5;exitDx=0;exitDy=0;entryX=1;entryY=0.5;entryDx=0;entryDy=0;" parent="1" source="k8hzf8zhftYtITJq1yaA-50" target="k8hzf8zhftYtITJq1yaA-23" edge="1">
          <mxGeometry width="100" height="100" relative="1" as="geometry">
            <mxPoint x="610" y="810" as="sourcePoint" />
            <mxPoint x="710" y="710" as="targetPoint" />
          </mxGeometry>
        </mxCell>
        <mxCell id="k8hzf8zhftYtITJq1yaA-65" value="" style="edgeStyle=entityRelationEdgeStyle;fontSize=12;html=1;endArrow=ERoneToMany;rounded=0;exitX=1;exitY=0.5;exitDx=0;exitDy=0;entryX=0;entryY=0.5;entryDx=0;entryDy=0;" parent="1" source="inPe30HMubqTb9UfR07S-1" target="k8hzf8zhftYtITJq1yaA-33" edge="1">
          <mxGeometry width="100" height="100" relative="1" as="geometry">
            <mxPoint x="242.5" y="810" as="sourcePoint" />
            <mxPoint x="710" y="610" as="targetPoint" />
          </mxGeometry>
        </mxCell>
        <mxCell id="k8hzf8zhftYtITJq1yaA-66" value="API 지도" style="rounded=1;arcSize=10;whiteSpace=wrap;html=1;align=center;" parent="1" vertex="1">
          <mxGeometry x="860" y="730" width="100" height="40" as="geometry" />
        </mxCell>
        <mxCell id="k8hzf8zhftYtITJq1yaA-67" value="주소" style="ellipse;whiteSpace=wrap;html=1;align=center;" parent="1" vertex="1">
          <mxGeometry x="300" y="1035" width="100" height="40" as="geometry" />
        </mxCell>
        <mxCell id="k8hzf8zhftYtITJq1yaA-69" value="" style="edgeStyle=entityRelationEdgeStyle;fontSize=12;html=1;endArrow=ERzeroToMany;endFill=1;rounded=0;entryX=1;entryY=0;entryDx=0;entryDy=0;exitX=0;exitY=1;exitDx=0;exitDy=0;" parent="1" source="k8hzf8zhftYtITJq1yaA-66" target="k8hzf8zhftYtITJq1yaA-23" edge="1">
          <mxGeometry width="100" height="100" relative="1" as="geometry">
            <mxPoint x="610" y="910" as="sourcePoint" />
            <mxPoint x="710" y="810" as="targetPoint" />
          </mxGeometry>
        </mxCell>
        <mxCell id="k8hzf8zhftYtITJq1yaA-70" value="지도의 중심 위도" style="ellipse;whiteSpace=wrap;html=1;align=center;" parent="1" vertex="1">
          <mxGeometry x="780" y="800" width="100" height="40" as="geometry" />
        </mxCell>
        <mxCell id="k8hzf8zhftYtITJq1yaA-71" value="지도의 중심 경도" style="ellipse;whiteSpace=wrap;html=1;align=center;" parent="1" vertex="1">
          <mxGeometry x="890" y="800" width="100" height="40" as="geometry" />
        </mxCell>
        <mxCell id="k8hzf8zhftYtITJq1yaA-72" value="지도의 확대 레벨" style="ellipse;whiteSpace=wrap;html=1;align=center;" parent="1" vertex="1">
          <mxGeometry x="1010" y="800" width="100" height="40" as="geometry" />
        </mxCell>
        <mxCell id="k8hzf8zhftYtITJq1yaA-76" value="전국지도" style="rounded=1;arcSize=10;whiteSpace=wrap;html=1;align=center;" parent="1" vertex="1">
          <mxGeometry x="655" y="440" width="100" height="40" as="geometry" />
        </mxCell>
        <mxCell id="k8hzf8zhftYtITJq1yaA-77" value="명칭" style="ellipse;whiteSpace=wrap;html=1;align=center;" parent="1" vertex="1">
          <mxGeometry x="590" y="525" width="100" height="40" as="geometry" />
        </mxCell>
        <mxCell id="k8hzf8zhftYtITJq1yaA-78" value="광역시,도 type" style="ellipse;whiteSpace=wrap;html=1;align=center;" parent="1" vertex="1">
          <mxGeometry x="700" y="520" width="100" height="40" as="geometry" />
        </mxCell>
        <mxCell id="k8hzf8zhftYtITJq1yaA-79" value="" style="edgeStyle=entityRelationEdgeStyle;fontSize=12;html=1;endArrow=ERoneToMany;rounded=0;exitX=1;exitY=0.5;exitDx=0;exitDy=0;entryX=0;entryY=0.5;entryDx=0;entryDy=0;" parent="1" source="k8hzf8zhftYtITJq1yaA-76" target="k8hzf8zhftYtITJq1yaA-24" edge="1">
          <mxGeometry width="100" height="100" relative="1" as="geometry">
            <mxPoint x="610" y="810" as="sourcePoint" />
            <mxPoint x="710" y="710" as="targetPoint" />
          </mxGeometry>
        </mxCell>
        <mxCell id="k8hzf8zhftYtITJq1yaA-81" value="세부지도 명칭" style="ellipse;whiteSpace=wrap;html=1;align=center;" parent="1" vertex="1">
          <mxGeometry x="990" y="585" width="100" height="40" as="geometry" />
        </mxCell>
        <mxCell id="k8hzf8zhftYtITJq1yaA-82" value="세부지도 idx" style="ellipse;whiteSpace=wrap;html=1;align=center;" parent="1" vertex="1">
          <mxGeometry x="1120" y="780" width="100" height="40" as="geometry" />
        </mxCell>
        <mxCell id="k8hzf8zhftYtITJq1yaA-83" value="전국지도 idx" style="ellipse;whiteSpace=wrap;html=1;align=center;" parent="1" vertex="1">
          <mxGeometry x="1100" y="730" width="100" height="40" as="geometry" />
        </mxCell>
        <mxCell id="k8hzf8zhftYtITJq1yaA-84" value="API지도 idx" style="ellipse;whiteSpace=wrap;html=1;align=center;fontStyle=4;" parent="1" vertex="1">
          <mxGeometry x="680" y="760" width="100" height="40" as="geometry" />
        </mxCell>
        <mxCell id="k8hzf8zhftYtITJq1yaA-85" value="" style="fontSize=12;html=1;endArrow=ERoneToMany;rounded=0;entryX=0;entryY=0;entryDx=0;entryDy=0;exitX=0.5;exitY=1;exitDx=0;exitDy=0;" parent="1" source="k8hzf8zhftYtITJq1yaA-76" target="k8hzf8zhftYtITJq1yaA-66" edge="1">
          <mxGeometry width="100" height="100" relative="1" as="geometry">
            <mxPoint x="610" y="810" as="sourcePoint" />
            <mxPoint x="710" y="710" as="targetPoint" />
          </mxGeometry>
        </mxCell>
        <mxCell id="k8hzf8zhftYtITJq1yaA-86" value="" style="fontSize=12;html=1;endArrow=ERzeroToMany;endFill=1;rounded=0;entryX=0.5;entryY=0;entryDx=0;entryDy=0;exitX=0.5;exitY=1;exitDx=0;exitDy=0;" parent="1" source="k8hzf8zhftYtITJq1yaA-24" target="k8hzf8zhftYtITJq1yaA-66" edge="1">
          <mxGeometry width="100" height="100" relative="1" as="geometry">
            <mxPoint x="610" y="810" as="sourcePoint" />
            <mxPoint x="710" y="710" as="targetPoint" />
          </mxGeometry>
        </mxCell>
        <mxCell id="inPe30HMubqTb9UfR07S-1" value="게시글" style="shape=rhombus;perimeter=rhombusPerimeter;whiteSpace=wrap;html=1;align=center;" vertex="1" parent="1">
          <mxGeometry x="130" y="780" width="120" height="60" as="geometry" />
        </mxCell>
      </root>
    </mxGraphModel>
  </diagram>
</mxfile>
